Disc Title:     Surf's Up Blu-ray™
Disc Label:     Koenige.der.Wellen.2007.COMPLETE.BLURAY-iND
Disc Size:      45,746,915,579 bytes
Protection:     AACS
Extras:         BD-Java
BDInfo:         0.7.5.5

Notes:          

BDINFO HOME:
  Cinema Squid (old)
    http://www.cinemasquid.com/blu-ray/tools/bdinfo
  UniqProject GitHub (new)
   https://github.com/UniqProject/BDInfo

INCLUDES FORUMS REPORT FOR:
  AVS Forum Blu-ray Audio and Video Specifications Thread
    http://www.avsforum.com/avs-vb/showthread.php?t=1155731


********************
PLAYLIST: 00292.MPLS
********************

<--- BEGIN FORUMS PASTE --->
[code]
                                                                                                                Total   Video                                             
Title                                                           Codec   Length  Movie Size      Disc Size       Bitrate Bitrate Main Audio Track                          Secondary Audio Track
-----                                                           ------  ------- --------------  --------------  ------- ------- ------------------                        ---------------------
00292.MPLS                                                      AVC     1:25:31 25,090,467,840  45,746,915,579  39.12   25.94   Dolby TrueHD 5.1 4065Kbps (48kHz/24-bit)  
[/code]

[code]

DISC INFO:

Disc Title:     Surf's Up Blu-ray™
Disc Label:     Koenige.der.Wellen.2007.COMPLETE.BLURAY-iND
Disc Size:      45,746,915,579 bytes
Protection:     AACS
Extras:         BD-Java
BDInfo:         0.7.5.5

PLAYLIST REPORT:

Name:                   00292.MPLS
Length:                 1:25:31.084 (h:m:s.ms)
Size:                   25,090,467,840 bytes
Total Bitrate:          39.12 Mbps

VIDEO:

Codec                   Bitrate             Description     
-----                   -------             -----------     
MPEG-4 AVC Video        25941 kbps          1080p / 23.976 fps / 16:9 / High Profile 4.1

AUDIO:

Codec                           Language        Bitrate         Description     
-----                           --------        -------         -----------     
Dolby TrueHD Audio              English         4065 kbps       5.1 / 48 kHz /  3425 kbps / 24-bit (AC3 Embedded: 5.1 / 48 kHz /   640 kbps / DN -26dB)
Dolby TrueHD Audio              German          3953 kbps       5.1 / 48 kHz /  3313 kbps / 24-bit (AC3 Embedded: 5.1 / 48 kHz /   640 kbps / DN -31dB)
Dolby Digital Audio             Turkish         640 kbps        5.1 / 48 kHz /   640 kbps / DN -30dB
Dolby Digital Audio             English         192 kbps        2.0 / 48 kHz /   192 kbps / DN -31dB / Dolby Surround
Dolby Digital Audio             English         192 kbps        2.0 / 48 kHz /   192 kbps / DN -31dB / Dolby Surround

SUBTITLES:

Codec                           Language        Bitrate         Description     
-----                           --------        -------         -----------     
Presentation Graphics           English         41.919 kbps                     
Presentation Graphics           German          44.778 kbps                     
Presentation Graphics           Turkish         41.074 kbps                     
Presentation Graphics           German          77.293 kbps                     
Presentation Graphics           German          61.052 kbps                     

FILES:

Name            Time In         Length          Size            Total Bitrate   
----            -------         ------          ----            -------------   
00201.M2TS      0:00:00.000     0:03:18.573     997,619,712     40,191          
00206.M2TS      0:03:18.573     0:00:30.530     158,429,184     41,514          
00197.M2TS      0:03:49.103     1:21:41.980     23,934,418,944  39,061          

CHAPTERS:

Number          Time In         Length          Avg Video Rate  Max 1-Sec Rate  Max 1-Sec Time  Max 5-Sec Rate  Max 5-Sec Time  Max 10Sec Rate  Max 10Sec Time  Avg Frame Size  Max Frame Size  Max Frame Time  
------          -------         ------          --------------  --------------  --------------  --------------  --------------  --------------  --------------  --------------  --------------  --------------  
1               0:00:00.000     0:06:08.159     27,881 kbps     48,561 kbps     00:00:23.982    34,117 kbps     00:00:29.779    32,783 kbps     00:01:33.676    145,343 bytes   728,963 bytes   00:02:14.217    
2               0:06:08.159     0:06:00.360     27,092 kbps     44,180 kbps     00:11:57.591    31,990 kbps     00:11:55.923    30,670 kbps     00:08:21.334    141,245 bytes   639,306 bytes   00:06:13.956    
3               0:12:08.519     0:05:34.542     26,743 kbps     44,978 kbps     00:14:27.074    31,679 kbps     00:13:13.876    30,791 kbps     00:13:09.747    139,425 bytes   675,109 bytes   00:14:06.971    
4               0:17:43.061     0:05:23.114     28,365 kbps     43,303 kbps     00:21:31.373    33,916 kbps     00:20:34.441    32,537 kbps     00:19:47.895    147,883 bytes   477,142 bytes   00:22:52.412    
5               0:23:06.176     0:04:46.744     25,092 kbps     40,837 kbps     00:23:17.854    31,614 kbps     00:23:13.892    30,520 kbps     00:23:12.182    130,818 bytes   515,191 bytes   00:23:18.563    
6               0:27:52.921     0:05:07.932     27,838 kbps     39,478 kbps     00:31:43.401    32,378 kbps     00:31:01.401    31,107 kbps     00:31:34.350    145,133 bytes   462,275 bytes   00:29:35.732    
7               0:33:00.853     0:05:13.563     25,976 kbps     34,044 kbps     00:37:22.490    28,929 kbps     00:37:14.023    27,900 kbps     00:34:32.069    135,427 bytes   500,767 bytes   00:36:56.047    
8               0:38:14.417     0:05:58.983     26,711 kbps     37,900 kbps     00:38:27.221    33,518 kbps     00:38:48.242    30,887 kbps     00:38:43.154    139,260 bytes   532,443 bytes   00:39:31.619    
9               0:44:13.400     0:02:29.983     27,008 kbps     40,613 kbps     00:44:36.131    32,417 kbps     00:45:39.361    30,756 kbps     00:44:36.131    140,808 bytes   432,171 bytes   00:45:13.710    
10              0:46:43.383     0:04:56.629     28,295 kbps     43,163 kbps     00:48:24.192    33,222 kbps     00:49:22.000    32,195 kbps     00:48:27.738    147,517 bytes   456,011 bytes   00:50:08.755    
11              0:51:40.013     0:04:07.372     27,074 kbps     39,686 kbps     00:52:21.847    34,689 kbps     00:52:17.968    33,103 kbps     00:52:13.046    141,150 bytes   448,551 bytes   00:53:09.686    
12              0:55:47.385     0:06:21.214     27,465 kbps     39,609 kbps     00:56:56.579    34,052 kbps     00:56:56.246    32,722 kbps     00:57:39.164    143,190 bytes   429,689 bytes   00:58:06.691    
13              1:02:08.599     0:05:46.345     27,447 kbps     38,127 kbps     01:06:10.549    32,087 kbps     01:02:43.634    31,035 kbps     01:02:40.923    143,097 bytes   493,753 bytes   01:06:20.976    
14              1:07:54.945     0:04:16.047     28,675 kbps     46,612 kbps     01:12:02.234    34,056 kbps     01:12:02.234    31,870 kbps     01:12:00.983    149,496 bytes   500,434 bytes   01:08:05.998    
15              1:12:10.993     0:04:13.628     27,858 kbps     34,796 kbps     01:15:12.007    30,921 kbps     01:15:41.203    30,405 kbps     01:15:36.240    145,241 bytes   489,652 bytes   01:15:49.044    
16              1:16:24.621     0:09:06.462     14,527 kbps     41,526 kbps     01:19:43.653    32,493 kbps     01:25:01.596    31,286 kbps     01:24:59.594    75,750 bytes    505,796 bytes   01:18:51.685    

STREAM DIAGNOSTICS:

File            PID             Type            Codec           Language                Seconds                 Bitrate                 Bytes           Packets         
----            ---             ----            -----           --------                --------------          --------------          -------------   -----           
00201.M2TS      4113 (0x1011)   0x1B            AVC                                     198.448                 28,085                  696,670,055     3,789,067       
00201.M2TS      4352 (0x1100)   0x83            TrueHD          eng (English)           198.448                 3,680                   91,295,750      605,472         
00201.M2TS      4353 (0x1101)   0x83            TrueHD          deu (German)            198.448                 3,569                   88,521,478      597,515         
00201.M2TS      4354 (0x1102)   0x81            AC3             tur (Turkish)           198.448                 640                     15,887,360      93,090          
00201.M2TS      4355 (0x1103)   0x81            AC3             eng (English)           198.448                 192                     4,766,208       31,030          
00201.M2TS      4356 (0x1104)   0x81            AC3             eng (English)           198.448                 192                     4,766,208       31,030          
00201.M2TS      4608 (0x1200)   0x90            PGS             eng (English)           198.448                 48                      1,194,567       6,810           
00201.M2TS      4609 (0x1201)   0x90            PGS             deu (German)            198.448                 48                      1,197,736       6,833           
00201.M2TS      4610 (0x1202)   0x90            PGS             tur (Turkish)           198.448                 47                      1,156,812       6,602           
00201.M2TS      4611 (0x1203)   0x90            PGS             deu (German)            198.448                 87                      2,164,167       12,249          
00201.M2TS      4612 (0x1204)   0x90            PGS             deu (German)            198.448                 67                      1,670,663       9,547           
00206.M2TS      4113 (0x1011)   0x1B            AVC                                     30.447                  28,595                  108,830,476     591,912         
00206.M2TS      4352 (0x1100)   0x83            TrueHD          eng (English)           30.447                  3,916                   14,902,130      101,218         
00206.M2TS      4353 (0x1101)   0x83            TrueHD          deu (German)            30.447                  3,786                   14,410,476      101,062         
00206.M2TS      4354 (0x1102)   0x81            AC3             tur (Turkish)           30.447                  642                     2,444,800       14,325          
00206.M2TS      4355 (0x1103)   0x81            AC3             eng (English)           30.447                  193                     733,440         4,775           
00206.M2TS      4356 (0x1104)   0x81            AC3             eng (English)           30.447                  193                     733,440         4,775           
00206.M2TS      4608 (0x1200)   0x90            PGS             eng (English)           30.447                  35                      131,679         747             
00206.M2TS      4609 (0x1201)   0x90            PGS             deu (German)            30.447                  42                      158,257         892             
00206.M2TS      4610 (0x1202)   0x90            PGS             tur (Turkish)           30.447                  36                      137,621         781             
00206.M2TS      4611 (0x1203)   0x90            PGS             deu (German)            30.447                  104                     394,376         2,221           
00206.M2TS      4612 (0x1204)   0x90            PGS             deu (German)            30.447                  65                      245,863         1,393           
00197.M2TS      4113 (0x1011)   0x1B            AVC                                     4901.897                25,839                  15,832,549,996  86,115,692      
00197.M2TS      4352 (0x1100)   0x83            TrueHD          eng (English)           4901.897                4,082                   2,501,226,050   17,168,638      
00197.M2TS      4353 (0x1101)   0x83            TrueHD          deu (German)            4901.897                3,969                   2,432,218,450   16,455,973      
00197.M2TS      4354 (0x1102)   0x81            AC3             tur (Turkish)           4901.897                640                     392,158,720     2,297,805       
00197.M2TS      4355 (0x1103)   0x81            AC3             eng (English)           4901.897                192                     117,647,616     765,935         
00197.M2TS      4356 (0x1104)   0x81            AC3             eng (English)           4901.897                192                     117,647,616     765,935         
00197.M2TS      4608 (0x1200)   0x90            PGS             eng (English)           4901.897                42                      25,560,243      145,936         
00197.M2TS      4609 (0x1201)   0x90            PGS             deu (German)            4901.897                45                      27,364,226      155,887         
00197.M2TS      4610 (0x1202)   0x90            PGS             tur (Turkish)           4901.897                41                      25,049,965      143,315         
00197.M2TS      4611 (0x1203)   0x90            PGS             deu (German)            4901.897                77                      47,016,020      266,200         
00197.M2TS      4612 (0x1204)   0x90            PGS             deu (German)            4901.897                61                      37,241,254      212,884         

[/code]
<---- END FORUMS PASTE ---->

QUICK SUMMARY:

Disc Title: Surf's Up Blu-ray™
Disc Label: Koenige.der.Wellen.2007.COMPLETE.BLURAY-iND
Disc Size: 45,746,915,579 bytes
Protection: AACS
Playlist: 00292.MPLS
Size: 25,090,467,840 bytes
Length: 1:25:31.084
Total Bitrate: 39.12 Mbps
Video: MPEG-4 AVC Video / 25941 kbps / 1080p / 23.976 fps / 16:9 / High Profile 4.1
Audio: English / Dolby TrueHD Audio / 5.1 / 48 kHz /  3425 kbps / 24-bit (AC3 Embedded: 5.1 / 48 kHz /   640 kbps / DN -26dB)
Audio: German / Dolby TrueHD Audio / 5.1 / 48 kHz /  3313 kbps / 24-bit (AC3 Embedded: 5.1 / 48 kHz /   640 kbps / DN -31dB)
Audio: Turkish / Dolby Digital Audio / 5.1 / 48 kHz /   640 kbps / DN -30dB
Audio: English / Dolby Digital Audio / 2.0 / 48 kHz /   192 kbps / DN -31dB / Dolby Surround
Audio: English / Dolby Digital Audio / 2.0 / 48 kHz /   192 kbps / DN -31dB / Dolby Surround
Subtitle: English / 41.919 kbps
Subtitle: German / 44.778 kbps
Subtitle: Turkish / 41.074 kbps
Subtitle: German / 77.293 kbps
Subtitle: German / 61.052 kbps


********************
PLAYLIST: 00293.MPLS
********************

<--- BEGIN FORUMS PASTE --->
[code]
                                                                                                                Total   Video                                             
Title                                                           Codec   Length  Movie Size      Disc Size       Bitrate Bitrate Main Audio Track                          Secondary Audio Track
-----                                                           ------  ------- --------------  --------------  ------- ------- ------------------                        ---------------------
00293.MPLS                                                      AVC     1:25:31 25,090,461,696  45,746,915,579  39.12   25.94   Dolby TrueHD 5.1 4065Kbps (48kHz/24-bit)  
[/code]

[code]

DISC INFO:

Disc Title:     Surf's Up Blu-ray™
Disc Label:     Koenige.der.Wellen.2007.COMPLETE.BLURAY-iND
Disc Size:      45,746,915,579 bytes
Protection:     AACS
Extras:         BD-Java
BDInfo:         0.7.5.5

PLAYLIST REPORT:

Name:                   00293.MPLS
Length:                 1:25:31.084 (h:m:s.ms)
Size:                   25,090,461,696 bytes
Total Bitrate:          39.12 Mbps

VIDEO:

Codec                   Bitrate             Description     
-----                   -------             -----------     
MPEG-4 AVC Video        25941 kbps          1080p / 23.976 fps / 16:9 / High Profile 4.1

AUDIO:

Codec                           Language        Bitrate         Description     
-----                           --------        -------         -----------     
Dolby TrueHD Audio              English         4065 kbps       5.1 / 48 kHz /  3425 kbps / 24-bit (AC3 Embedded: 5.1 / 48 kHz /   640 kbps / DN -26dB)
Dolby TrueHD Audio              German          3953 kbps       5.1 / 48 kHz /  3313 kbps / 24-bit (AC3 Embedded: 5.1 / 48 kHz /   640 kbps / DN -31dB)
Dolby Digital Audio             Turkish         640 kbps        5.1 / 48 kHz /   640 kbps / DN -30dB
Dolby Digital Audio             English         192 kbps        2.0 / 48 kHz /   192 kbps / DN -31dB / Dolby Surround
Dolby Digital Audio             English         192 kbps        2.0 / 48 kHz /   192 kbps / DN -31dB / Dolby Surround

SUBTITLES:

Codec                           Language        Bitrate         Description     
-----                           --------        -------         -----------     
Presentation Graphics           English         41.919 kbps                     
Presentation Graphics           German          44.778 kbps                     
Presentation Graphics           Turkish         41.074 kbps                     
Presentation Graphics           German          77.293 kbps                     
Presentation Graphics           German          61.052 kbps                     

FILES:

Name            Time In         Length          Size            Total Bitrate   
----            -------         ------          ----            -------------   
00201.M2TS      0:00:00.000     0:03:18.573     997,619,712     40,191          
00207.M2TS      0:03:18.573     0:00:30.530     158,423,040     41,512          
00197.M2TS      0:03:49.103     1:21:41.980     23,934,418,944  39,061          

CHAPTERS:

Number          Time In         Length          Avg Video Rate  Max 1-Sec Rate  Max 1-Sec Time  Max 5-Sec Rate  Max 5-Sec Time  Max 10Sec Rate  Max 10Sec Time  Avg Frame Size  Max Frame Size  Max Frame Time  
------          -------         ------          --------------  --------------  --------------  --------------  --------------  --------------  --------------  --------------  --------------  --------------  
1               0:00:00.000     0:06:08.159     27,881 kbps     48,561 kbps     00:00:23.982    34,117 kbps     00:00:29.779    32,783 kbps     00:01:33.676    145,343 bytes   728,963 bytes   00:02:14.217    
2               0:06:08.159     0:06:00.360     27,092 kbps     44,180 kbps     00:11:57.591    31,990 kbps     00:11:55.923    30,670 kbps     00:08:21.334    141,245 bytes   639,306 bytes   00:06:13.956    
3               0:12:08.519     0:05:34.542     26,743 kbps     44,978 kbps     00:14:27.074    31,679 kbps     00:13:13.876    30,791 kbps     00:13:09.747    139,425 bytes   675,109 bytes   00:14:06.971    
4               0:17:43.061     0:05:23.114     28,365 kbps     43,303 kbps     00:21:31.373    33,916 kbps     00:20:34.441    32,537 kbps     00:19:47.895    147,883 bytes   477,142 bytes   00:22:52.412    
5               0:23:06.176     0:04:46.744     25,092 kbps     40,837 kbps     00:23:17.854    31,614 kbps     00:23:13.892    30,520 kbps     00:23:12.182    130,818 bytes   515,191 bytes   00:23:18.563    
6               0:27:52.921     0:05:07.932     27,838 kbps     39,478 kbps     00:31:43.401    32,378 kbps     00:31:01.401    31,107 kbps     00:31:34.350    145,133 bytes   462,275 bytes   00:29:35.732    
7               0:33:00.853     0:05:13.563     25,976 kbps     34,044 kbps     00:37:22.490    28,929 kbps     00:37:14.023    27,900 kbps     00:34:32.069    135,427 bytes   500,767 bytes   00:36:56.047    
8               0:38:14.417     0:05:58.983     26,711 kbps     37,900 kbps     00:38:27.221    33,518 kbps     00:38:48.242    30,887 kbps     00:38:43.154    139,260 bytes   532,443 bytes   00:39:31.619    
9               0:44:13.400     0:02:29.983     27,008 kbps     40,613 kbps     00:44:36.131    32,417 kbps     00:45:39.361    30,756 kbps     00:44:36.131    140,808 bytes   432,171 bytes   00:45:13.710    
10              0:46:43.383     0:04:56.629     28,295 kbps     43,163 kbps     00:48:24.192    33,222 kbps     00:49:22.000    32,195 kbps     00:48:27.738    147,517 bytes   456,011 bytes   00:50:08.755    
11              0:51:40.013     0:04:07.372     27,074 kbps     39,686 kbps     00:52:21.847    34,689 kbps     00:52:17.968    33,103 kbps     00:52:13.046    141,150 bytes   448,551 bytes   00:53:09.686    
12              0:55:47.385     0:06:21.214     27,465 kbps     39,609 kbps     00:56:56.579    34,052 kbps     00:56:56.246    32,722 kbps     00:57:39.164    143,190 bytes   429,689 bytes   00:58:06.691    
13              1:02:08.599     0:05:46.345     27,447 kbps     38,127 kbps     01:06:10.549    32,087 kbps     01:02:43.634    31,035 kbps     01:02:40.923    143,097 bytes   493,753 bytes   01:06:20.976    
14              1:07:54.945     0:04:16.047     28,675 kbps     46,612 kbps     01:12:02.234    34,056 kbps     01:12:02.234    31,870 kbps     01:12:00.983    149,496 bytes   500,434 bytes   01:08:05.998    
15              1:12:10.993     0:04:13.628     27,858 kbps     34,796 kbps     01:15:12.007    30,921 kbps     01:15:41.203    30,405 kbps     01:15:36.240    145,241 bytes   489,652 bytes   01:15:49.044    
16              1:16:24.621     0:09:06.462     14,527 kbps     41,526 kbps     01:19:43.653    32,493 kbps     01:25:01.596    31,286 kbps     01:24:59.594    75,750 bytes    505,796 bytes   01:18:51.685    

STREAM DIAGNOSTICS:

File            PID             Type            Codec           Language                Seconds                 Bitrate                 Bytes           Packets         
----            ---             ----            -----           --------                --------------          --------------          -------------   -----           
00201.M2TS      4113 (0x1011)   0x1B            AVC                                     198.448                 28,085                  696,670,055     3,789,067       
00201.M2TS      4352 (0x1100)   0x83            TrueHD          eng (English)           198.448                 3,680                   91,295,750      605,472         
00201.M2TS      4353 (0x1101)   0x83            TrueHD          deu (German)            198.448                 3,569                   88,521,478      597,515         
00201.M2TS      4354 (0x1102)   0x81            AC3             tur (Turkish)           198.448                 640                     15,887,360      93,090          
00201.M2TS      4355 (0x1103)   0x81            AC3             eng (English)           198.448                 192                     4,766,208       31,030          
00201.M2TS      4356 (0x1104)   0x81            AC3             eng (English)           198.448                 192                     4,766,208       31,030          
00201.M2TS      4608 (0x1200)   0x90            PGS             eng (English)           198.448                 48                      1,194,567       6,810           
00201.M2TS      4609 (0x1201)   0x90            PGS             deu (German)            198.448                 48                      1,197,736       6,833           
00201.M2TS      4610 (0x1202)   0x90            PGS             tur (Turkish)           198.448                 47                      1,156,812       6,602           
00201.M2TS      4611 (0x1203)   0x90            PGS             deu (German)            198.448                 87                      2,164,167       12,249          
00201.M2TS      4612 (0x1204)   0x90            PGS             deu (German)            198.448                 67                      1,670,663       9,547           
00207.M2TS      4113 (0x1011)   0x1B            AVC                                     30.447                  28,595                  108,829,136     591,898         
00207.M2TS      4352 (0x1100)   0x83            TrueHD          eng (English)           30.447                  3,916                   14,902,130      101,218         
00207.M2TS      4353 (0x1101)   0x83            TrueHD          deu (German)            30.447                  3,786                   14,410,476      101,062         
00207.M2TS      4354 (0x1102)   0x81            AC3             tur (Turkish)           30.447                  642                     2,444,800       14,325          
00207.M2TS      4355 (0x1103)   0x81            AC3             eng (English)           30.447                  193                     733,440         4,775           
00207.M2TS      4356 (0x1104)   0x81            AC3             eng (English)           30.447                  193                     733,440         4,775           
00207.M2TS      4608 (0x1200)   0x90            PGS             eng (English)           30.447                  35                      131,679         747             
00207.M2TS      4609 (0x1201)   0x90            PGS             deu (German)            30.447                  42                      158,257         892             
00207.M2TS      4610 (0x1202)   0x90            PGS             tur (Turkish)           30.447                  36                      137,621         781             
00207.M2TS      4611 (0x1203)   0x90            PGS             deu (German)            30.447                  104                     394,376         2,221           
00207.M2TS      4612 (0x1204)   0x90            PGS             deu (German)            30.447                  65                      245,863         1,393           
00197.M2TS      4113 (0x1011)   0x1B            AVC                                     4901.897                25,839                  15,832,549,996  86,115,692      
00197.M2TS      4352 (0x1100)   0x83            TrueHD          eng (English)           4901.897                4,082                   2,501,226,050   17,168,638      
00197.M2TS      4353 (0x1101)   0x83            TrueHD          deu (German)            4901.897                3,969                   2,432,218,450   16,455,973      
00197.M2TS      4354 (0x1102)   0x81            AC3             tur (Turkish)           4901.897                640                     392,158,720     2,297,805       
00197.M2TS      4355 (0x1103)   0x81            AC3             eng (English)           4901.897                192                     117,647,616     765,935         
00197.M2TS      4356 (0x1104)   0x81            AC3             eng (English)           4901.897                192                     117,647,616     765,935         
00197.M2TS      4608 (0x1200)   0x90            PGS             eng (English)           4901.897                42                      25,560,243      145,936         
00197.M2TS      4609 (0x1201)   0x90            PGS             deu (German)            4901.897                45                      27,364,226      155,887         
00197.M2TS      4610 (0x1202)   0x90            PGS             tur (Turkish)           4901.897                41                      25,049,965      143,315         
00197.M2TS      4611 (0x1203)   0x90            PGS             deu (German)            4901.897                77                      47,016,020      266,200         
00197.M2TS      4612 (0x1204)   0x90            PGS             deu (German)            4901.897                61                      37,241,254      212,884         

[/code]
<---- END FORUMS PASTE ---->

QUICK SUMMARY:

Disc Title: Surf's Up Blu-ray™
Disc Label: Koenige.der.Wellen.2007.COMPLETE.BLURAY-iND
Disc Size: 45,746,915,579 bytes
Protection: AACS
Playlist: 00293.MPLS
Size: 25,090,461,696 bytes
Length: 1:25:31.084
Total Bitrate: 39.12 Mbps
Video: MPEG-4 AVC Video / 25941 kbps / 1080p / 23.976 fps / 16:9 / High Profile 4.1
Audio: English / Dolby TrueHD Audio / 5.1 / 48 kHz /  3425 kbps / 24-bit (AC3 Embedded: 5.1 / 48 kHz /   640 kbps / DN -26dB)
Audio: German / Dolby TrueHD Audio / 5.1 / 48 kHz /  3313 kbps / 24-bit (AC3 Embedded: 5.1 / 48 kHz /   640 kbps / DN -31dB)
Audio: Turkish / Dolby Digital Audio / 5.1 / 48 kHz /   640 kbps / DN -30dB
Audio: English / Dolby Digital Audio / 2.0 / 48 kHz /   192 kbps / DN -31dB / Dolby Surround
Audio: English / Dolby Digital Audio / 2.0 / 48 kHz /   192 kbps / DN -31dB / Dolby Surround
Subtitle: English / 41.919 kbps
Subtitle: German / 44.778 kbps
Subtitle: Turkish / 41.074 kbps
Subtitle: German / 77.293 kbps
Subtitle: German / 61.052 kbps


********************
PLAYLIST: 00295.MPLS
********************

<--- BEGIN FORUMS PASTE --->
[code]
                                                                                                                Total   Video                                             
Title                                                           Codec   Length  Movie Size      Disc Size       Bitrate Bitrate Main Audio Track                          Secondary Audio Track
-----                                                           ------  ------- --------------  --------------  ------- ------- ------------------                        ---------------------
00295.MPLS                                                      AVC     1:25:31 25,090,074,624  45,746,915,579  39.12   25.94   Dolby TrueHD 5.1 4065Kbps (48kHz/24-bit)  
[/code]

[code]

DISC INFO:

Disc Title:     Surf's Up Blu-ray™
Disc Label:     Koenige.der.Wellen.2007.COMPLETE.BLURAY-iND
Disc Size:      45,746,915,579 bytes
Protection:     AACS
Extras:         BD-Java
BDInfo:         0.7.5.5

PLAYLIST REPORT:

Name:                   00295.MPLS
Length:                 1:25:31.084 (h:m:s.ms)
Size:                   25,090,074,624 bytes
Total Bitrate:          39.12 Mbps

VIDEO:

Codec                   Bitrate             Description     
-----                   -------             -----------     
MPEG-4 AVC Video        25940 kbps          1080p / 23.976 fps / 16:9 / High Profile 4.1

AUDIO:

Codec                           Language        Bitrate         Description     
-----                           --------        -------         -----------     
Dolby TrueHD Audio              English         4065 kbps       5.1 / 48 kHz /  3425 kbps / 24-bit (AC3 Embedded: 5.1 / 48 kHz /   640 kbps / DN -26dB)
Dolby TrueHD Audio              German          3953 kbps       5.1 / 48 kHz /  3313 kbps / 24-bit (AC3 Embedded: 5.1 / 48 kHz /   640 kbps / DN -31dB)
Dolby Digital Audio             Turkish         640 kbps        5.1 / 48 kHz /   640 kbps / DN -30dB
Dolby Digital Audio             English         192 kbps        2.0 / 48 kHz /   192 kbps / DN -31dB / Dolby Surround
Dolby Digital Audio             English         192 kbps        2.0 / 48 kHz /   192 kbps / DN -31dB / Dolby Surround

SUBTITLES:

Codec                           Language        Bitrate         Description     
-----                           --------        -------         -----------     
Presentation Graphics           English         41.919 kbps                     
Presentation Graphics           German          44.778 kbps                     
Presentation Graphics           Turkish         41.074 kbps                     
Presentation Graphics           German          77.293 kbps                     
Presentation Graphics           German          61.052 kbps                     

FILES:

Name            Time In         Length          Size            Total Bitrate   
----            -------         ------          ----            -------------   
00201.M2TS      0:00:00.000     0:03:18.573     997,619,712     40,191          
00208.M2TS      0:03:18.573     0:00:30.530     158,035,968     41,411          
00197.M2TS      0:03:49.103     1:21:41.980     23,934,418,944  39,061          

CHAPTERS:

Number          Time In         Length          Avg Video Rate  Max 1-Sec Rate  Max 1-Sec Time  Max 5-Sec Rate  Max 5-Sec Time  Max 10Sec Rate  Max 10Sec Time  Avg Frame Size  Max Frame Size  Max Frame Time  
------          -------         ------          --------------  --------------  --------------  --------------  --------------  --------------  --------------  --------------  --------------  --------------  
1               0:00:00.000     0:06:08.159     27,873 kbps     48,561 kbps     00:00:23.982    34,117 kbps     00:00:29.779    32,783 kbps     00:01:33.676    145,301 bytes   728,963 bytes   00:02:14.217    
2               0:06:08.159     0:06:00.360     27,092 kbps     44,180 kbps     00:11:57.591    31,990 kbps     00:11:55.923    30,670 kbps     00:08:21.334    141,245 bytes   639,306 bytes   00:06:13.956    
3               0:12:08.519     0:05:34.542     26,743 kbps     44,978 kbps     00:14:27.074    31,679 kbps     00:13:13.876    30,791 kbps     00:13:09.747    139,425 bytes   675,109 bytes   00:14:06.971    
4               0:17:43.061     0:05:23.114     28,365 kbps     43,303 kbps     00:21:31.373    33,916 kbps     00:20:34.441    32,537 kbps     00:19:47.895    147,883 bytes   477,142 bytes   00:22:52.412    
5               0:23:06.176     0:04:46.744     25,092 kbps     40,837 kbps     00:23:17.854    31,614 kbps     00:23:13.892    30,520 kbps     00:23:12.182    130,818 bytes   515,191 bytes   00:23:18.563    
6               0:27:52.921     0:05:07.932     27,838 kbps     39,478 kbps     00:31:43.401    32,378 kbps     00:31:01.401    31,107 kbps     00:31:34.350    145,133 bytes   462,275 bytes   00:29:35.732    
7               0:33:00.853     0:05:13.563     25,976 kbps     34,044 kbps     00:37:22.490    28,929 kbps     00:37:14.023    27,900 kbps     00:34:32.069    135,427 bytes   500,767 bytes   00:36:56.047    
8               0:38:14.417     0:05:58.983     26,711 kbps     37,900 kbps     00:38:27.221    33,518 kbps     00:38:48.242    30,887 kbps     00:38:43.154    139,260 bytes   532,443 bytes   00:39:31.619    
9               0:44:13.400     0:02:29.983     27,008 kbps     40,613 kbps     00:44:36.131    32,417 kbps     00:45:39.361    30,756 kbps     00:44:36.131    140,808 bytes   432,171 bytes   00:45:13.710    
10              0:46:43.383     0:04:56.629     28,295 kbps     43,163 kbps     00:48:24.192    33,222 kbps     00:49:22.000    32,195 kbps     00:48:27.738    147,517 bytes   456,011 bytes   00:50:08.755    
11              0:51:40.013     0:04:07.372     27,074 kbps     39,686 kbps     00:52:21.847    34,689 kbps     00:52:17.968    33,103 kbps     00:52:13.046    141,150 bytes   448,551 bytes   00:53:09.686    
12              0:55:47.385     0:06:21.214     27,465 kbps     39,609 kbps     00:56:56.579    34,052 kbps     00:56:56.246    32,722 kbps     00:57:39.164    143,190 bytes   429,689 bytes   00:58:06.691    
13              1:02:08.599     0:05:46.345     27,447 kbps     38,127 kbps     01:06:10.549    32,087 kbps     01:02:43.634    31,035 kbps     01:02:40.923    143,097 bytes   493,753 bytes   01:06:20.976    
14              1:07:54.945     0:04:16.047     28,675 kbps     46,612 kbps     01:12:02.234    34,056 kbps     01:12:02.234    31,870 kbps     01:12:00.983    149,496 bytes   500,434 bytes   01:08:05.998    
15              1:12:10.993     0:04:13.628     27,858 kbps     34,796 kbps     01:15:12.007    30,921 kbps     01:15:41.203    30,405 kbps     01:15:36.240    145,241 bytes   489,652 bytes   01:15:49.044    
16              1:16:24.621     0:09:06.462     14,527 kbps     41,526 kbps     01:19:43.653    32,493 kbps     01:25:01.596    31,286 kbps     01:24:59.594    75,750 bytes    505,796 bytes   01:18:51.685    

STREAM DIAGNOSTICS:

File            PID             Type            Codec           Language                Seconds                 Bitrate                 Bytes           Packets         
----            ---             ----            -----           --------                --------------          --------------          -------------   -----           
00201.M2TS      4113 (0x1011)   0x1B            AVC                                     198.448                 28,085                  696,670,055     3,789,067       
00201.M2TS      4352 (0x1100)   0x83            TrueHD          eng (English)           198.448                 3,680                   91,295,750      605,472         
00201.M2TS      4353 (0x1101)   0x83            TrueHD          deu (German)            198.448                 3,569                   88,521,478      597,515         
00201.M2TS      4354 (0x1102)   0x81            AC3             tur (Turkish)           198.448                 640                     15,887,360      93,090          
00201.M2TS      4355 (0x1103)   0x81            AC3             eng (English)           198.448                 192                     4,766,208       31,030          
00201.M2TS      4356 (0x1104)   0x81            AC3             eng (English)           198.448                 192                     4,766,208       31,030          
00201.M2TS      4608 (0x1200)   0x90            PGS             eng (English)           198.448                 48                      1,194,567       6,810           
00201.M2TS      4609 (0x1201)   0x90            PGS             deu (German)            198.448                 48                      1,197,736       6,833           
00201.M2TS      4610 (0x1202)   0x90            PGS             tur (Turkish)           198.448                 47                      1,156,812       6,602           
00201.M2TS      4611 (0x1203)   0x90            PGS             deu (German)            198.448                 87                      2,164,167       12,249          
00201.M2TS      4612 (0x1204)   0x90            PGS             deu (German)            198.448                 67                      1,670,663       9,547           
00208.M2TS      4113 (0x1011)   0x1B            AVC                                     30.447                  28,497                  108,456,868     589,879         
00208.M2TS      4352 (0x1100)   0x83            TrueHD          eng (English)           30.447                  3,916                   14,902,130      101,218         
00208.M2TS      4353 (0x1101)   0x83            TrueHD          deu (German)            30.447                  3,786                   14,410,476      101,062         
00208.M2TS      4354 (0x1102)   0x81            AC3             tur (Turkish)           30.447                  642                     2,444,800       14,325          
00208.M2TS      4355 (0x1103)   0x81            AC3             eng (English)           30.447                  193                     733,440         4,775           
00208.M2TS      4356 (0x1104)   0x81            AC3             eng (English)           30.447                  193                     733,440         4,775           
00208.M2TS      4608 (0x1200)   0x90            PGS             eng (English)           30.447                  35                      131,679         747             
00208.M2TS      4609 (0x1201)   0x90            PGS             deu (German)            30.447                  42                      158,257         892             
00208.M2TS      4610 (0x1202)   0x90            PGS             tur (Turkish)           30.447                  36                      137,621         781             
00208.M2TS      4611 (0x1203)   0x90            PGS             deu (German)            30.447                  104                     394,376         2,221           
00208.M2TS      4612 (0x1204)   0x90            PGS             deu (German)            30.447                  65                      245,863         1,393           
00197.M2TS      4113 (0x1011)   0x1B            AVC                                     4901.897                25,839                  15,832,549,996  86,115,692      
00197.M2TS      4352 (0x1100)   0x83            TrueHD          eng (English)           4901.897                4,082                   2,501,226,050   17,168,638      
00197.M2TS      4353 (0x1101)   0x83            TrueHD          deu (German)            4901.897                3,969                   2,432,218,450   16,455,973      
00197.M2TS      4354 (0x1102)   0x81            AC3             tur (Turkish)           4901.897                640                     392,158,720     2,297,805       
00197.M2TS      4355 (0x1103)   0x81            AC3             eng (English)           4901.897                192                     117,647,616     765,935         
00197.M2TS      4356 (0x1104)   0x81            AC3             eng (English)           4901.897                192                     117,647,616     765,935         
00197.M2TS      4608 (0x1200)   0x90            PGS             eng (English)           4901.897                42                      25,560,243      145,936         
00197.M2TS      4609 (0x1201)   0x90            PGS             deu (German)            4901.897                45                      27,364,226      155,887         
00197.M2TS      4610 (0x1202)   0x90            PGS             tur (Turkish)           4901.897                41                      25,049,965      143,315         
00197.M2TS      4611 (0x1203)   0x90            PGS             deu (German)            4901.897                77                      47,016,020      266,200         
00197.M2TS      4612 (0x1204)   0x90            PGS             deu (German)            4901.897                61                      37,241,254      212,884         

[/code]
<---- END FORUMS PASTE ---->

QUICK SUMMARY:

Disc Title: Surf's Up Blu-ray™
Disc Label: Koenige.der.Wellen.2007.COMPLETE.BLURAY-iND
Disc Size: 45,746,915,579 bytes
Protection: AACS
Playlist: 00295.MPLS
Size: 25,090,074,624 bytes
Length: 1:25:31.084
Total Bitrate: 39.12 Mbps
Video: MPEG-4 AVC Video / 25940 kbps / 1080p / 23.976 fps / 16:9 / High Profile 4.1
Audio: English / Dolby TrueHD Audio / 5.1 / 48 kHz /  3425 kbps / 24-bit (AC3 Embedded: 5.1 / 48 kHz /   640 kbps / DN -26dB)
Audio: German / Dolby TrueHD Audio / 5.1 / 48 kHz /  3313 kbps / 24-bit (AC3 Embedded: 5.1 / 48 kHz /   640 kbps / DN -31dB)
Audio: Turkish / Dolby Digital Audio / 5.1 / 48 kHz /   640 kbps / DN -30dB
Audio: English / Dolby Digital Audio / 2.0 / 48 kHz /   192 kbps / DN -31dB / Dolby Surround
Audio: English / Dolby Digital Audio / 2.0 / 48 kHz /   192 kbps / DN -31dB / Dolby Surround
Subtitle: English / 41.919 kbps
Subtitle: German / 44.778 kbps
Subtitle: Turkish / 41.074 kbps
Subtitle: German / 77.293 kbps
Subtitle: German / 61.052 kbps


********************
PLAYLIST: 00272.MPLS
********************

<--- BEGIN FORUMS PASTE --->
[code]
                                                                                                                Total   Video                                             
Title                                                           Codec   Length  Movie Size      Disc Size       Bitrate Bitrate Main Audio Track                          Secondary Audio Track
-----                                                           ------  ------- --------------  --------------  ------- ------- ------------------                        ---------------------
00272.MPLS                                                      AVC     1:21:41 23,934,418,944  45,746,915,579  39.06   25.84   Dolby TrueHD 5.1 4082Kbps (48kHz/24-bit)  
[/code]

[code]

DISC INFO:

Disc Title:     Surf's Up Blu-ray™
Disc Label:     Koenige.der.Wellen.2007.COMPLETE.BLURAY-iND
Disc Size:      45,746,915,579 bytes
Protection:     AACS
Extras:         BD-Java
BDInfo:         0.7.5.5

PLAYLIST REPORT:

Name:                   00272.MPLS
Length:                 1:21:41.980 (h:m:s.ms)
Size:                   23,934,418,944 bytes
Total Bitrate:          39.06 Mbps

VIDEO:

Codec                   Bitrate             Description     
-----                   -------             -----------     
MPEG-4 AVC Video        25839 kbps          1080p / 23.976 fps / 16:9 / High Profile 4.1

AUDIO:

Codec                           Language        Bitrate         Description     
-----                           --------        -------         -----------     
Dolby TrueHD Audio              English         4082 kbps       5.1 / 48 kHz /  3442 kbps / 24-bit (AC3 Embedded: 5.1 / 48 kHz /   640 kbps / DN -26dB)
Dolby TrueHD Audio              German          3969 kbps       5.1 / 48 kHz /  3329 kbps / 24-bit (AC3 Embedded: 5.1 / 48 kHz /   640 kbps / DN -31dB)
Dolby Digital Audio             Turkish         640 kbps        5.1 / 48 kHz /   640 kbps / DN -30dB
Dolby Digital Audio             English         192 kbps        2.0 / 48 kHz /   192 kbps / DN -31dB / Dolby Surround
Dolby Digital Audio             English         192 kbps        2.0 / 48 kHz /   192 kbps / DN -31dB / Dolby Surround

SUBTITLES:

Codec                           Language        Bitrate         Description     
-----                           --------        -------         -----------     
Presentation Graphics           English         41.714 kbps                     
Presentation Graphics           German          44.658 kbps                     
Presentation Graphics           Turkish         40.881 kbps                     
Presentation Graphics           German          76.730 kbps                     
Presentation Graphics           German          60.777 kbps                     

FILES:

Name            Time In         Length          Size            Total Bitrate   
----            -------         ------          ----            -------------   
00197.M2TS      0:00:00.000     1:21:41.980     23,934,418,944  39,061          

CHAPTERS:

Number          Time In         Length          Avg Video Rate  Max 1-Sec Rate  Max 1-Sec Time  Max 5-Sec Rate  Max 5-Sec Time  Max 10Sec Rate  Max 10Sec Time  Avg Frame Size  Max Frame Size  Max Frame Time  
------          -------         ------          --------------  --------------  --------------  --------------  --------------  --------------  --------------  --------------  --------------  --------------  
1               0:00:00.000     1:21:41.980     25,839 kbps     46,612 kbps     01:08:13.130    34,689 kbps     00:48:28.864    33,103 kbps     00:48:23.942    134,712 bytes   675,109 bytes   00:10:17.867    

STREAM DIAGNOSTICS:

File            PID             Type            Codec           Language                Seconds                 Bitrate                 Bytes           Packets         
----            ---             ----            -----           --------                --------------          --------------          -------------   -----           
00197.M2TS      4113 (0x1011)   0x1B            AVC                                     4901.897                25,839                  15,832,549,996  86,115,692      
00197.M2TS      4352 (0x1100)   0x83            TrueHD          eng (English)           4901.897                4,082                   2,501,226,050   17,168,638      
00197.M2TS      4353 (0x1101)   0x83            TrueHD          deu (German)            4901.897                3,969                   2,432,218,450   16,455,973      
00197.M2TS      4354 (0x1102)   0x81            AC3             tur (Turkish)           4901.897                640                     392,158,720     2,297,805       
00197.M2TS      4355 (0x1103)   0x81            AC3             eng (English)           4901.897                192                     117,647,616     765,935         
00197.M2TS      4356 (0x1104)   0x81            AC3             eng (English)           4901.897                192                     117,647,616     765,935         
00197.M2TS      4608 (0x1200)   0x90            PGS             eng (English)           4901.897                42                      25,560,243      145,936         
00197.M2TS      4609 (0x1201)   0x90            PGS             deu (German)            4901.897                45                      27,364,226      155,887         
00197.M2TS      4610 (0x1202)   0x90            PGS             tur (Turkish)           4901.897                41                      25,049,965      143,315         
00197.M2TS      4611 (0x1203)   0x90            PGS             deu (German)            4901.897                77                      47,016,020      266,200         
00197.M2TS      4612 (0x1204)   0x90            PGS             deu (German)            4901.897                61                      37,241,254      212,884         

[/code]
<---- END FORUMS PASTE ---->

QUICK SUMMARY:

Disc Title: Surf's Up Blu-ray™
Disc Label: Koenige.der.Wellen.2007.COMPLETE.BLURAY-iND
Disc Size: 45,746,915,579 bytes
Protection: AACS
Playlist: 00272.MPLS
Size: 23,934,418,944 bytes
Length: 1:21:41.980
Total Bitrate: 39.06 Mbps
Video: MPEG-4 AVC Video / 25839 kbps / 1080p / 23.976 fps / 16:9 / High Profile 4.1
Audio: English / Dolby TrueHD Audio / 5.1 / 48 kHz /  3442 kbps / 24-bit (AC3 Embedded: 5.1 / 48 kHz /   640 kbps / DN -26dB)
Audio: German / Dolby TrueHD Audio / 5.1 / 48 kHz /  3329 kbps / 24-bit (AC3 Embedded: 5.1 / 48 kHz /   640 kbps / DN -31dB)
Audio: Turkish / Dolby Digital Audio / 5.1 / 48 kHz /   640 kbps / DN -30dB
Audio: English / Dolby Digital Audio / 2.0 / 48 kHz /   192 kbps / DN -31dB / Dolby Surround
Audio: English / Dolby Digital Audio / 2.0 / 48 kHz /   192 kbps / DN -31dB / Dolby Surround
Subtitle: English / 41.714 kbps
Subtitle: German / 44.658 kbps
Subtitle: Turkish / 40.881 kbps
Subtitle: German / 76.730 kbps
Subtitle: German / 60.777 kbps

